# xmcd
#
# Track frame offsets: 
#        150
#        35303
#        62566
#        78784
#        97626
#        119519
#        137691
#        156538
#        179040
#        196158
#
# Disc length: 2892 seconds
#
# Revision: 6
# Processed by: cddbd v1.5.2PL0 Copyright (c) Steve Scherf et al.
# Submitted via: ExactAudioCopyFreeDBPlugin 1.0
#
DISCID=7d0b4a0a
DTITLE=Lambchop - Damaged
DYEAR=2006
DGENRE=Rock
TTITLE0=Paperback Bible
TTITLE1=Prepared (2)
TTITLE2=The Rise and Fall of the Letter P
TTITLE3=A Day Without Glasses
TTITLE4=Beers Before the Barbican
TTITLE5=I Would Have Waited Here All Day
TTITLE6=Crackers
TTITLE7=Fear
TTITLE8=Short
TTITLE9=The Decline of Country and Western Civilization
EXTD=
EXTT0=
EXTT1=
EXTT2=
EXTT3=
EXTT4=
EXTT5=
EXTT6=
EXTT7=
EXTT8=
EXTT9=
PLAYORDER=
